<svg width="232" height="104" viewBox="0 0 232 104" fill="none" xmlns="http://www.w3.org/2000/svg">
<path fill-rule="evenodd" clip-rule="evenodd" d="M176.438 79.5996C178.466 79.5996 180.074 80.2647 181.263 81.5943C182.451 82.9238 183.046 85.0588 183.046 87.9991C183.046 90.8968 182.381 93.0534 181.05 94.4695C179.72 95.8855 177.757 96.5939 175.162 96.5939C174.66 96.5939 174.202 96.5611 173.788 96.4962C173.373 96.4313 172.916 96.3448 172.414 96.2366V101.685C172.414 102.161 172.25 102.561 171.924 102.885C171.596 103.21 171.204 103.371 170.746 103.371C170.288 103.371 169.895 103.21 169.568 102.885C169.241 102.561 169.077 102.161 169.077 101.685V81.4156C169.077 80.9403 169.241 80.5459 169.568 80.2319C169.895 79.9186 170.288 79.7622 170.746 79.7622C171.204 79.7622 171.596 79.9186 171.924 80.2319C172.25 80.5459 172.414 80.9403 172.414 81.4156V81.5133C173.308 80.2375 174.65 79.5996 176.438 79.5996ZM224.624 79.5995C227.066 79.5995 228.844 80.2807 229.956 81.643C231.068 83.0047 231.624 85.1779 231.624 88.1615C231.624 88.3995 231.548 88.5992 231.395 88.7617C231.242 88.9231 231.046 89.0046 230.806 89.0046H220.862C220.905 89.8916 221.036 90.6315 221.254 91.2261C221.472 91.8214 221.783 92.3016 222.187 92.6694C222.59 93.0372 223.086 93.2968 223.675 93.4476C224.264 93.599 224.95 93.6751 225.735 93.6751C226.303 93.6751 226.853 93.6318 227.388 93.5453C227.922 93.4587 228.439 93.3073 228.942 93.091C229.334 92.9401 229.705 92.9506 230.054 93.1231C230.402 93.2968 230.643 93.5669 230.774 93.9341C230.904 94.3025 230.893 94.6535 230.741 94.9879C230.588 95.3236 230.326 95.5881 229.956 95.7828C229.433 96.0641 228.756 96.2693 227.928 96.3991C227.098 96.5289 226.27 96.5938 225.441 96.5938C222.628 96.5938 220.589 95.9182 219.324 94.5664C218.059 93.2158 217.427 91.0592 217.427 88.0966C217.427 85.1996 218.015 83.0591 219.193 81.6751C220.371 80.2918 222.181 79.5995 224.624 79.5995ZM115.167 79.5995C117.762 79.5995 119.682 80.2918 120.924 81.6751C122.168 83.0591 122.789 85.1996 122.789 88.0966C122.789 90.9943 122.168 93.1348 120.924 94.5176C119.682 95.9021 117.762 96.5938 115.167 96.5938C112.572 96.5938 110.653 95.9021 109.41 94.5176C108.166 93.1348 107.545 90.9943 107.545 88.0966C107.545 85.1996 108.166 83.0591 109.41 81.6751C110.653 80.2918 112.572 79.5995 115.167 79.5995ZM11.2057 72.8213C12.1216 72.8213 13.0431 72.914 13.9702 73.0975C14.8967 73.2811 15.6436 73.5463 16.211 73.8918C16.7123 74.1947 17.0234 74.5297 17.1431 74.8969C17.2628 75.2646 17.2248 75.6429 17.0284 76.0323C16.7883 76.4434 16.4891 76.6968 16.1287 76.7945C15.769 76.8915 15.3606 76.8544 14.9023 76.6807C14.3349 76.486 13.7408 76.3136 13.1192 76.1621C12.4982 76.0107 11.8379 75.9347 11.1402 75.9347C8.78532 75.9347 7.07822 76.6269 6.02079 78.0103C4.96274 79.3942 4.43402 81.6219 4.43402 84.6914C4.43402 86.2268 4.56496 87.5452 4.82682 88.6479C5.08806 89.75 5.48584 90.6586 6.02079 91.3719C6.55512 92.0858 7.24718 92.61 8.09824 92.945C8.94867 93.28 9.96245 93.4475 11.1402 93.4475C11.8379 93.4475 12.4982 93.3721 13.1192 93.2207C13.7408 93.0699 14.3349 92.8962 14.9023 92.7021C15.3606 92.529 15.769 92.4907 16.1287 92.5884C16.4891 92.6854 16.7883 92.9401 17.0284 93.3505C17.2248 93.7399 17.2628 94.1182 17.1431 94.486C17.0234 94.8531 16.7123 95.1881 16.211 95.491C15.6436 95.8372 14.8967 96.1023 13.9702 96.2859C13.0431 96.4689 12.1216 96.561 11.2057 96.561C7.62875 96.561 5.01761 95.6041 3.37099 93.6905C1.72374 91.7774 0.901367 88.7777 0.901367 84.6914C0.901367 80.5835 1.72374 77.5782 3.37099 75.6751C5.01761 73.7731 7.62875 72.8213 11.2057 72.8213ZM192.696 79.5673C193.874 79.5673 194.877 79.686 195.706 79.9239C196.534 80.1619 197.21 80.5458 197.734 81.0755C198.257 81.6052 198.639 82.2913 198.879 83.1344C199.119 83.9781 199.239 85.0054 199.239 86.2157V94.745C199.239 95.2209 199.08 95.6208 198.764 95.9447C198.448 96.2692 198.05 96.4312 197.57 96.4312C197.09 96.4312 196.692 96.2692 196.376 95.9447C196.06 95.6208 195.902 95.2209 195.902 94.745V94.6158C194.942 95.9126 193.492 96.561 191.551 96.561C190.701 96.561 189.926 96.4583 189.228 96.2531C188.53 96.0479 187.93 95.724 187.429 95.2802C186.927 94.8371 186.54 94.2857 186.268 93.6262C185.995 92.9673 185.859 92.1829 185.859 91.2749C185.859 89.5232 186.415 88.2264 187.527 87.3827C188.64 86.5396 190.319 86.118 192.565 86.118C193.198 86.118 193.786 86.1563 194.332 86.2317C194.877 86.3078 195.4 86.4215 195.902 86.5723V86.021C195.902 84.7019 195.635 83.7667 195.1 83.216C194.566 82.6646 193.633 82.389 192.304 82.389C191.736 82.389 191.218 82.4372 190.75 82.5348C190.28 82.6319 189.806 82.7567 189.326 82.9076C188.869 83.059 188.444 83.0757 188.051 82.9564C187.658 82.8377 187.397 82.562 187.266 82.1294C187.135 81.6973 187.189 81.3184 187.429 80.9939C187.669 80.67 188.051 80.4104 188.574 80.2157C189.207 79.9783 189.893 79.8102 190.635 79.7132C191.376 79.6155 192.063 79.5673 192.696 79.5673ZM210.524 79.5673C211.156 79.5673 211.811 79.6272 212.487 79.7459C213.163 79.8646 213.686 80.021 214.058 80.2157C214.472 80.4104 214.744 80.6756 214.875 81.0106C215.006 81.3456 214.995 81.6973 214.842 82.0645C214.69 82.4322 214.444 82.6807 214.106 82.8105C213.768 82.9397 213.381 82.9514 212.945 82.8427C212.574 82.7345 212.203 82.6479 211.833 82.583C211.461 82.5181 211.059 82.486 210.622 82.486C209.052 82.486 207.917 82.9242 207.22 83.7995C206.522 84.6753 206.174 86.097 206.174 88.0644C206.174 90.0319 206.522 91.4529 207.22 92.3288C207.917 93.204 209.052 93.6423 210.622 93.6423C211.059 93.6423 211.461 93.6101 211.833 93.5452C212.203 93.4803 212.574 93.3938 212.945 93.2856C213.381 93.1774 213.768 93.1886 214.106 93.3184C214.444 93.4475 214.69 93.6966 214.842 94.0638C214.995 94.4322 215.006 94.7827 214.875 95.1177C214.744 95.4533 214.472 95.7179 214.058 95.9126C213.686 96.1073 213.163 96.2636 212.487 96.3829C211.811 96.501 211.156 96.561 210.524 96.561C207.863 96.561 205.906 95.8804 204.652 94.5175C203.398 93.1558 202.771 91.0048 202.771 88.0644C202.771 85.1241 203.398 82.9725 204.652 81.6108C205.906 80.2478 207.863 79.5673 210.524 79.5673ZM159.624 79.5673C160.452 79.5673 161.243 79.6272 161.995 79.7453C162.748 79.8646 163.374 80.0649 163.876 80.3455C164.247 80.5618 164.503 80.827 164.645 81.1404C164.787 81.4538 164.781 81.7943 164.629 82.1615C164.454 82.5509 164.187 82.7994 163.827 82.9076C163.467 83.0157 163.037 82.9941 162.535 82.8427C162.077 82.7128 161.603 82.5997 161.112 82.5021C160.621 82.405 160.103 82.3562 159.558 82.3562C158.468 82.3562 157.677 82.5076 157.186 82.8099C156.696 83.1134 156.451 83.5782 156.451 84.205C156.451 84.7885 156.696 85.27 157.186 85.6482C157.677 86.0265 158.598 86.3887 159.95 86.7349C160.975 86.9939 161.837 87.2807 162.535 87.5941C163.233 87.9074 163.794 88.2641 164.22 88.6646C164.645 89.0645 164.944 89.5133 165.119 90.0096C165.294 90.5078 165.381 91.0697 165.381 91.6964C165.381 93.3184 164.852 94.5342 163.794 95.3445C162.737 96.1561 161.074 96.561 158.806 96.561C156.777 96.561 155.142 96.2797 153.899 95.7179C153.528 95.5448 153.261 95.2858 153.097 94.9397C152.934 94.5935 152.939 94.2264 153.114 93.837C153.288 93.4475 153.566 93.1941 153.947 93.0748C154.329 92.9561 154.803 92.9833 155.371 93.1558C155.85 93.3072 156.379 93.4475 156.958 93.5773C157.535 93.7071 158.152 93.772 158.806 93.772C159.962 93.772 160.796 93.6101 161.308 93.2856C161.82 92.9617 162.077 92.453 162.077 91.7613C162.077 91.4801 162.028 91.2316 161.93 91.0153C161.832 90.7996 161.641 90.5937 161.358 90.399C161.074 90.2049 160.692 90.0158 160.212 89.8316C159.732 89.648 159.101 89.4589 158.315 89.2642C157.399 89.0268 156.619 88.7672 155.976 88.486C155.333 88.2047 154.798 87.8691 154.373 87.4809C153.947 87.0915 153.637 86.6372 153.441 86.118C153.245 85.5994 153.146 84.9832 153.146 84.2699C153.146 82.7778 153.664 81.6219 154.701 80.7992C155.736 79.9783 157.377 79.5673 159.624 79.5673ZM69.9911 79.7621C70.4269 79.7621 70.7867 79.9024 71.0704 80.1836C71.3534 80.4642 71.4956 80.7993 71.4956 81.1887C71.4956 81.3623 71.4513 81.5404 71.3647 81.7239C71.2774 81.9075 71.1795 82.0862 71.0704 82.2592L66.8831 87.7394L71.3971 93.7721C71.5935 94.0101 71.7244 94.2264 71.7899 94.4205C71.8554 94.6152 71.8884 94.7673 71.8884 94.8742C71.8884 95.3724 71.73 95.7556 71.4139 96.0264C71.0978 96.2958 70.7543 96.4312 70.3833 96.4312C70.0342 96.4312 69.7293 96.3614 69.4674 96.2204C69.2055 96.0808 68.9549 95.8372 68.7149 95.4911L64.9858 90.2372L61.2561 95.4911C60.8197 96.1185 60.286 96.4312 59.6538 96.4312C59.2822 96.4312 58.9505 96.2958 58.6556 96.0264C58.3613 95.7556 58.2142 95.415 58.2142 95.004C58.2142 94.8316 58.2578 94.6535 58.3451 94.4693C58.4317 94.2858 58.5303 94.1071 58.6394 93.9341L63.1864 87.8692L58.9661 82.2592C58.726 81.9347 58.6063 81.5997 58.6063 81.2536C58.6063 80.8431 58.7591 80.4914 59.0646 80.1997C59.3695 79.9079 59.7404 79.7621 60.1769 79.7621C60.4824 79.7621 60.7654 79.8325 61.0273 79.9728C61.2892 80.1138 61.5392 80.3567 61.7799 80.7022L65.1167 85.372L68.453 80.7022C68.693 80.3777 68.9281 80.1403 69.1569 79.9889C69.3857 79.8381 69.6638 79.7621 69.9911 79.7621ZM105.484 72.9511C105.964 72.9511 106.368 73.1087 106.694 73.4215C107.022 73.7349 107.185 74.1187 107.185 74.573C107.185 74.7245 107.163 74.8864 107.12 75.0595L101.657 94.745C101.504 95.2636 101.237 95.6747 100.856 95.9775C100.473 96.2798 99.9989 96.4312 99.4322 96.4312C98.8648 96.4312 98.3903 96.2798 98.0094 95.9775C97.6278 95.6747 97.3603 95.2636 97.2076 94.745L93.7728 82.389C93.7073 82.1511 93.6362 81.8914 93.5602 81.6102C93.4835 81.3296 93.4236 81.0589 93.3806 80.7992C93.3363 81.0378 93.2765 81.3024 93.2004 81.5941C93.1237 81.8859 93.0533 82.1511 92.9878 82.389L89.5531 94.745C89.4003 95.2636 89.1384 95.6747 88.7681 95.9775C88.3965 96.2798 87.917 96.4312 87.3285 96.4312C86.7611 96.4312 86.2866 96.2798 85.9051 95.9775C85.5235 95.6747 85.256 95.2636 85.1039 94.745L79.7718 75.0595C79.7276 74.8864 79.7064 74.735 79.7064 74.6052C79.7064 74.1515 79.8697 73.7621 80.1971 73.4376C80.5238 73.1131 80.9378 72.9511 81.4403 72.9511C81.8761 72.9511 82.2577 73.076 82.585 73.3245C82.9123 73.5729 83.1411 73.9568 83.2721 74.4754L87.0011 89.6209C87.0884 89.9887 87.1701 90.362 87.2468 90.7397C87.3229 91.118 87.3939 91.5129 87.4594 91.9233C87.5461 91.5129 87.6277 91.118 87.705 90.7397C87.7811 90.362 87.8734 89.9887 87.9825 89.6209L91.2215 78.0431C91.3736 77.5029 91.6573 77.0758 92.0719 76.7618C92.4859 76.4484 92.9436 76.2914 93.4461 76.2914C93.9474 76.2914 94.405 76.4484 94.8196 76.7618C95.2336 77.0758 95.5173 77.5029 95.6701 78.0431L98.8436 89.6209C98.9527 89.9887 99.0506 90.3663 99.1379 90.7557C99.2252 91.1452 99.3124 91.5562 99.3997 91.9889C99.5307 91.1668 99.694 90.3781 99.8904 89.6209L103.718 74.4111C103.957 73.4376 104.547 72.9511 105.484 72.9511ZM22.0335 79.7621C22.4918 79.7621 22.884 79.924 23.2113 80.2479C23.5386 80.5724 23.702 80.9729 23.702 81.4483V94.7772C23.702 95.2315 23.5386 95.6203 23.2113 95.9448C22.884 96.2693 22.4918 96.4312 22.0335 96.4312C21.5759 96.4312 21.1831 96.2693 20.8558 95.9448C20.5284 95.6203 20.3651 95.2315 20.3651 94.7772V81.4483C20.3651 80.9729 20.5284 80.5724 20.8558 80.2479C21.1831 79.924 21.5759 79.7621 22.0335 79.7621ZM140.029 72.9509C140.487 72.9509 140.879 73.1135 141.207 73.438C141.533 73.7619 141.697 74.1624 141.697 74.6378V87.0586L148.076 80.2483C148.229 80.0753 148.408 79.9516 148.616 79.8756C148.823 79.8002 149.025 79.7619 149.221 79.7619C149.657 79.7619 150.017 79.9078 150.301 80.1995C150.584 80.4912 150.726 80.8436 150.726 81.254C150.726 81.6218 150.595 81.9457 150.334 82.2263L144.969 87.7077L150.399 93.8368C150.66 94.1397 150.791 94.4747 150.791 94.8425C150.791 95.2752 150.644 95.6485 150.35 95.9613C150.055 96.274 149.668 96.431 149.188 96.431C148.992 96.431 148.774 96.3933 148.534 96.3179C148.294 96.2419 148.087 96.096 147.913 95.8803L141.697 88.5508V94.7776C141.697 95.2313 141.533 95.6207 141.207 95.9446C140.879 96.2697 140.487 96.431 140.029 96.431C139.571 96.431 139.178 96.2697 138.851 95.9446C138.524 95.6207 138.36 95.2313 138.36 94.7776V74.6378C138.36 74.1624 138.524 73.7619 138.851 73.438C139.178 73.1135 139.571 72.9509 140.029 72.9509ZM53.4378 79.7621C53.8961 79.7621 54.2883 79.924 54.6156 80.2479C54.9429 80.5724 55.1063 80.9729 55.1063 81.4483V94.7772C55.1063 95.2315 54.9429 95.6203 54.6156 95.9448C54.2883 96.2693 53.8961 96.4312 53.4378 96.4312C52.9802 96.4312 52.5874 96.2693 52.2601 95.9448C51.9327 95.6203 51.7694 95.2315 51.7694 94.7772V81.4483C51.7694 80.9729 51.9327 80.5724 52.2601 80.2479C52.5874 79.924 52.9802 79.7621 53.4378 79.7621ZM133.649 79.6644C134.325 79.6644 134.86 79.7837 135.252 80.021C135.645 80.259 135.842 80.6484 135.842 81.1887C135.842 81.643 135.711 82.0052 135.449 82.2753C135.188 82.546 134.816 82.6808 134.337 82.6808C134.118 82.6808 133.906 82.6647 133.699 82.6319C133.491 82.5998 133.257 82.5831 132.995 82.5831C132.297 82.5831 131.675 82.7024 131.131 82.9398C130.586 83.1783 130.16 83.5134 129.855 83.9454V94.7772C129.855 95.2315 129.692 95.6203 129.364 95.9448C129.037 96.2693 128.645 96.4312 128.186 96.4312C127.729 96.4312 127.336 96.2693 127.009 95.9448C126.681 95.6203 126.518 95.2315 126.518 94.7772V81.4161C126.518 80.9402 126.681 80.5458 127.009 80.2318C127.336 79.9191 127.729 79.7621 128.186 79.7621C128.645 79.7621 129.037 79.9191 129.364 80.2318C129.692 80.5458 129.855 80.9402 129.855 81.4161V81.6102C130.269 80.9834 130.793 80.5026 131.425 80.1675C132.057 79.8325 132.799 79.6644 133.649 79.6644ZM30.6372 72.9511C31.0955 72.9511 31.4877 73.113 31.815 73.4375C32.1417 73.762 32.3057 74.1626 32.3057 74.6379V79.9561H35.6095C36.0235 79.9561 36.367 80.0859 36.6401 80.3455C36.9126 80.6051 37.0491 80.9407 37.0491 81.3512C37.0491 81.7622 36.9126 82.0966 36.6401 82.3562C36.367 82.6158 36.0235 82.7456 35.6095 82.7456H32.3057V90.9504C32.3057 91.859 32.4634 92.513 32.7801 92.9129C33.0956 93.3128 33.6468 93.5124 34.4317 93.5124C34.5839 93.5124 34.7042 93.5075 34.7915 93.4964C34.8788 93.4853 34.9879 93.4803 35.1188 93.4803C35.4243 93.4803 35.708 93.5934 35.9693 93.8203C36.2311 94.0477 36.3621 94.3778 36.3621 94.8099C36.3621 95.415 36.1332 95.8372 35.675 96.0745C35.2173 96.3125 34.6493 96.4312 33.9741 96.4312C32.2072 96.4312 30.9315 96.0207 30.1465 95.1993C29.361 94.3778 28.9688 93.0909 28.9688 91.3398V82.7456H27.8565C27.4419 82.7456 27.099 82.6158 26.8265 82.3562C26.5534 82.0966 26.4169 81.7622 26.4169 81.3512C26.4169 80.9407 26.5534 80.6051 26.8265 80.3455C27.099 80.0859 27.4419 79.9561 27.8565 79.9561H28.9688V74.6379C28.9688 74.1626 29.1321 73.762 29.4595 73.4375C29.7868 73.113 30.179 72.9511 30.6372 72.9511ZM47.0585 79.6644C47.7344 79.6644 48.2693 79.7837 48.6615 80.021C49.0543 80.259 49.2507 80.6484 49.2507 81.1887C49.2507 81.643 49.1198 82.0052 48.8579 82.2753C48.5967 82.546 48.2251 82.6808 47.7456 82.6808C47.5274 82.6808 47.3148 82.6647 47.1078 82.6319C46.9002 82.5998 46.6664 82.5831 46.4045 82.5831C45.7062 82.5831 45.0846 82.7024 44.5397 82.9398C43.9947 83.1783 43.5695 83.5134 43.264 83.9454V94.7772C43.264 95.2315 43.1007 95.6203 42.7733 95.9448C42.446 96.2693 42.0538 96.4312 41.5956 96.4312C41.1379 96.4312 40.7451 96.2693 40.4178 95.9448C40.0905 95.6203 39.9271 95.2315 39.9271 94.7772V81.4161C39.9271 80.9402 40.0905 80.5458 40.4178 80.2318C40.7451 79.9191 41.1379 79.7621 41.5956 79.7621C42.0538 79.7621 42.446 79.9191 42.7733 80.2318C43.1007 80.5458 43.264 80.9402 43.264 81.4161V81.6102C43.678 80.9834 44.2017 80.5026 44.8339 80.1675C45.4662 79.8325 46.2081 79.6644 47.0585 79.6644ZM193.154 88.6479C191.758 88.6479 190.744 88.8538 190.111 89.2642C189.479 89.6746 189.163 90.3564 189.163 91.307C189.163 92.2799 189.452 92.9722 190.03 93.3826C190.608 93.7937 191.398 93.9989 192.401 93.9989C193.295 93.9989 194.016 93.853 194.561 93.5607C195.105 93.2695 195.553 92.8962 195.902 92.4425V89.0367C195.117 88.7777 194.201 88.6479 193.154 88.6479ZM115.167 82.5182C113.684 82.5182 112.61 82.9614 111.945 83.8484C111.279 84.7347 110.947 86.1508 110.947 88.0966C110.947 90.0424 111.279 91.4585 111.945 92.3455C112.61 93.2319 113.684 93.6751 115.167 93.6751C116.65 93.6751 117.724 93.2319 118.389 92.3455C119.054 91.4585 119.387 90.0424 119.387 88.0966C119.387 86.1508 119.054 84.7347 118.389 83.8484C117.724 82.9614 116.65 82.5182 115.167 82.5182ZM175.718 82.5183C174.976 82.5183 174.317 82.6271 173.739 82.8428C173.161 83.0592 172.719 83.3942 172.414 83.8479V93.3501C173.003 93.567 173.734 93.6752 174.606 93.6752C176.372 93.6752 177.653 93.2104 178.45 92.2801C179.245 91.3511 179.644 89.8918 179.644 87.9021C179.644 86.0428 179.317 84.6805 178.662 83.8157C178.008 82.951 177.027 82.5183 175.718 82.5183ZM224.591 82.2265C223.478 82.2265 222.606 82.5405 221.974 83.1666C221.341 83.7946 220.97 84.9183 220.862 86.5396H228.254C228.211 85.0055 227.89 83.9022 227.29 83.2315C226.689 82.5621 225.79 82.2265 224.591 82.2265ZM22.0335 72.9511C22.6227 72.9511 23.124 73.157 23.5386 73.5674C23.9526 73.9784 24.1602 74.4754 24.1602 75.0595C24.1602 75.643 23.9526 76.1406 23.5386 76.551C23.124 76.962 22.6227 77.1672 22.0335 77.1672C21.445 77.1672 20.9424 76.962 20.5284 76.551C20.1144 76.1406 19.9075 75.643 19.9075 75.0595C19.9075 74.4754 20.1144 73.9784 20.5284 73.5674C20.9424 73.157 21.445 72.9511 22.0335 72.9511ZM53.4378 72.9511C54.027 72.9511 54.5283 73.157 54.9429 73.5674C55.3569 73.9784 55.5645 74.4754 55.5645 75.0595C55.5645 75.643 55.3569 76.1406 54.9429 76.551C54.5283 76.962 54.027 77.1672 53.4378 77.1672C52.8493 77.1672 52.3467 76.962 51.9327 76.551C51.5187 76.1406 51.3118 75.643 51.3118 75.0595C51.3118 74.4754 51.5187 73.9784 51.9327 73.5674C52.3467 73.157 52.8493 72.9511 53.4378 72.9511Z" fill="#005463"/>
<path fill-rule="evenodd" clip-rule="evenodd" d="M116.315 0.375763C118.129 0.375763 119.599 1.83334 119.599 3.63165C119.599 5.42917 118.129 6.88675 116.315 6.88675C104.745 6.88675 95.3335 16.2182 95.3335 27.688C95.3335 39.1569 104.745 48.4877 116.315 48.4877C127.884 48.4877 137.296 39.1569 137.296 27.688C137.296 25.8897 138.766 24.4321 140.58 24.4321C142.394 24.4321 143.864 25.8897 143.864 27.688C143.864 42.7473 131.506 54.9994 116.315 54.9994C101.124 54.9994 88.7651 42.7473 88.7651 27.688C88.7651 12.6279 101.124 0.375763 116.315 0.375763ZM116.315 12.2763C118.129 12.2763 119.599 13.7347 119.599 15.5322C119.599 17.3305 118.129 18.7881 116.315 18.7881C111.365 18.7881 107.338 22.7807 107.338 27.6874C107.338 32.5949 111.365 36.5866 116.315 36.5866C121.264 36.5866 125.292 32.5949 125.292 27.6874C125.292 25.8898 126.762 24.4315 128.576 24.4315C130.389 24.4315 131.86 25.8898 131.86 27.6874C131.86 36.1852 124.886 43.0984 116.315 43.0984C107.743 43.0984 100.77 36.1852 100.77 27.6874C100.77 19.1903 107.743 12.2763 116.315 12.2763ZM116.315 24.1485C118.286 24.1485 119.885 25.733 119.885 27.6875C119.885 29.642 118.286 31.2266 116.315 31.2266H116.211C114.239 31.2266 112.641 29.642 112.641 27.6875C112.641 25.733 114.239 24.1485 116.211 24.1485H116.315Z" fill="#005463"/>
</svg>
